PathFileType	4	(X/Y/Z)	D:\Share\Shared_Data\Ergonomics\Sit To Stand Pertubation\S3\Unperturbed.trc
DataRate	CameraRate	NumFrames	NumMarkers	Units	OrigDataRate	OrigDataStartFrame	OrigNumFrames	
100	100	19	18	m	100	4868	191
Frame#	Time	R_Thigh			R_ASIS			R_Pelvis			V_Sacral			L_Pelvis			L_ASIS			Clavical			R_Acromium			L_Acromium			Sternum			Torso			R_Thigh_Med			R_Thigh_Lat			R_Shank_Med			R_Shank_Lat			R_Shank			R_Heel			R_Toe			
		X1	Y1	Z1	X2	Y2	Z2	X3	Y3	Z3	X4	Y4	Z4	X5	Y5	Z5	X6	Y6	Z6	X7	Y7	Z7	X8	Y8	Z8	X9	Y9	Z9	X10	Y10	Z10	X11	Y11	Z11	X12	Y12	Z12	X13	Y13	Z13	X14	Y14	Z14	X15	Y15	Z15	X16	Y16	Z16	X17	Y17	Z17	X18	Y18	Z18	

4868	48.67	0.39463593	0.66002014	0.11386032	0.38664554	0.94763892	0.14439639	0.27514694	0.9531875	0.19171954	0.17767975	0.97560504	-0.0055981851	0.30041513	0.95968182	-0.20260451	0.40398395	0.9372359	-0.14096262	0.34706705	1.3713912	-0.0041449547	0.28306781	1.4209899	0.16517075	0.29619525	1.4269263	-0.16019362	0.37799106	1.2978221	0.00010203011	0.35458344	1.3589569	-0.069894051	0.37071454	0.47197101	0.061848274	0.29153094	0.45765854	0.14734436	0.25750375	0.1048485	0.092794525	0.23375839	0.099348793	0.17089594	0.23206044	0.28583759	0.17313438	0.18016386	0.050384445	0.12045097	0.39952472	0.053876808	0.13995151
4869	48.68	0.39670956	0.66002252	0.112828	0.38852637	0.94751917	0.14481406	0.27654636	0.95253223	0.19252719	0.17975519	0.97511957	-0.0058391724	0.30310236	0.95929443	-0.20265167	0.40644525	0.93693164	-0.14044774	0.34644891	1.3707592	-0.0040075145	0.2817373	1.419709	0.16560765	0.29493829	1.425967	-0.16031912	0.37783481	1.2972701	0.00034480989	0.35411911	1.3581626	-0.069737915	0.37219037	0.47191138	0.060879303	0.29354428	0.45742743	0.14718158	0.25760577	0.1047774	0.092483383	0.23402174	0.099436134	0.17065002	0.23357104	0.28580276	0.17300751	0.18029962	0.050506779	0.12034696	0.39975238	0.05371447	0.13999068
4870	48.69	0.39882642	0.66014917	0.11166079	0.39025845	0.9475061	0.14519357	0.27787619	0.95195825	0.19289941	0.18165274	0.97469489	-0.0060422158	0.30555432	0.95904938	-0.2026127	0.4087366	0.93684949	-0.13992278	0.34588651	1.370283	-0.0038803046	0.28049863	1.4186635	0.16595622	0.29388303	1.4252063	-0.16041931	0.37769595	1.2968632	0.00057410794	0.35374002	1.3575465	-0.06957605	0.37374042	0.47186694	0.059915855	0.29555161	0.45723294	0.14699739	0.25779269	0.1047177	0.092163734	0.23427324	0.099545349	0.17039404	0.23496761	0.28582285	0.17280391	0.18043767	0.050639969	0.12023013	0.39997238	0.053576881	0.14001785
4871	48.7	0.40090479	0.66034009	0.11053567	0.39186414	0.9476026	0.14551796	0.27919861	0.95150934	0.19270659	0.18338918	0.9742793	-0.0061977754	0.30776846	0.95891772	-0.20248633	0.41088153	0.93698535	-0.13942671	0.3453876	1.3699545	-0.0037565093	0.27938013	1.4178816	0.16620337	0.29306314	1.4246597	-0.16046606	0.37757892	1.296605	0.00079162234	0.35343747	1.3571198	-0.069401039	0.37531918	0.47178394	0.059115051	0.29740405	0.45708896	0.1468149	0.25804544	0.10467439	0.091868599	0.23449496	0.099675568	0.17014375	0.23615388	0.28589948	0.17255434	0.18056799	0.050782925	0.12011517	0.40017096	0.053469738	0.14003653
4872	48.71	0.4028678	0.66054077	0.10960234	0.39336005	0.94779883	0.14577669	0.28053885	0.95118237	0.19205171	0.18498448	0.9738299	-0.0063064036	0.30975876	0.95886542	-0.20229095	0.41290112	0.93731055	-0.13899355	0.34495682	1.3697494	-0.0036277776	0.27840652	1.4173668	0.16634898	0.29250165	1.4243209	-0.16044194	0.3774837	1.2964841	0.0010011879	0.35320035	1.3568759	-0.069205803	0.37686606	0.47164499	0.05855917	0.29901419	0.45699911	0.14665605	0.25832056	0.10465259	0.091614571	0.23467459	0.099824615	0.16991037	0.23710555	0.28602527	0.17229465	0.18068376	0.050940807	0.12001864	0.40034012	0.053393795	0.14005058
4873	48.72	0.40465836	0.66071112	0.10896737	0.39475629	0.94807605	0.1459677	0.2818801	0.95093445	0.19126582	0.18645898	0.97332092	-0.0063785105	0.31155447	0.95886188	-0.20205948	0.41481332	0.93777936	-0.13864864	0.34459421	1.3696393	-0.0034854631	0.2775932	1.4170977	0.16640695	0.29220624	1.4241641	-0.16034201	0.37740646	1.2964822	0.0012093347	0.35301538	1.3567949	-0.068985527	0.37830771	0.47147568	0.05824781	0.30035159	0.45695969	0.14653783	0.25857413	0.10465483	0.091408775	0.23480867	0.099985466	0.16970593	0.23785135	0.28618811	0.17205743	0.18078226	0.051124268	0.11995767	0.40047681	0.053345631	0.14006345
4874	48.73	0.40624847	0.660828	0.10868631	0.39605756	0.94840985	0.14609741	0.28317355	0.95071246	0.19076843	0.18783116	0.97274451	-0.006431972	0.31319733	0.95888403	-0.20182797	0.41663251	0.93833789	-0.13840561	0.34429517	1.3695975	-0.0033220046	0.27694296	1.4170321	0.16640161	0.29216727	1.4241484	-0.16017163	0.37734164	1.2965804	0.0014248308	0.35287061	1.3568496	-0.068738533	0.37957962	0.47132822	0.058125561	0.30142899	0.45696292	0.14646893	0.25877853	0.10468016	0.091253242	0.23490489	0.10014697	0.16954251	0.23844475	0.28637473	0.17186623	0.18086459	0.051346611	0.11994849	0.40058197	0.053319069	0.14007739
4875	48.74	0.40764044	0.66088269	0.1087642	0.39726498	0.94877344	0.14617882	0.28436679	0.95048193	0.19085893	0.18911668	0.97210876	-0.0064889021	0.31473605	0.95891699	-0.20162598	0.41836993	0.9389314	-0.13826491	0.34405075	1.3696034	-0.00313223	0.27644647	1.4171151	0.16636131	0.29235931	1.4242255	-0.15994325	0.37728412	1.2967612	0.0016569616	0.35275787	1.3570093	-0.068465927	0.38065604	0.4712489	0.058128971	0.30228598	0.45699939	0.14644887	0.25892435	0.10472437	0.091146255	0.23497768	0.10029729	0.16942867	0.23893835	0.28657214	0.17173257	0.18093398	0.051619778	0.12000347	0.40065894	0.05330698	0.1400937
4876	48.75	0.40885956	0.66087787	0.10916225	0.39837744	0.94914038	0.14622847	0.28542706	0.95024072	0.19158928	0.19032945	0.97143243	-0.0065730281	0.31621829	0.95895142	-0.20147758	0.42003333	0.93950977	-0.13821344	0.34384982	1.3696405	-0.0029142709	0.2760838	1.417286	0.16631261	0.29274414	1.4243451	-0.15967361	0.37723111	1.2970094	0.0019132154	0.35267517	1.3572413	-0.068170143	0.38156094	0.4712533	0.058219589	0.30297452	0.45705872	0.14647029	0.25901596	0.10478003	0.091083702	0.23504099	0.10042661	0.1693665	0.23936942	0.28676837	0.17165578	0.18099461	0.051948792	0.12012667	0.40071295	0.053302864	0.14011307
4877	48.76	0.4099415	0.66082373	0.10980797	0.39939279	0.94948651	0.14626389	0.28634402	0.95000983	0.19278401	0.19148325	0.97073883	-0.0067078428	0.31768246	0.95898053	-0.20140433	0.42162711	0.94003107	-0.1382265	0.3436814	1.3696964	-0.0026698461	0.27582816	1.417486	0.16627695	0.29327512	1.424462	-0.15938078	0.37718344	1.297308	0.0021972258	0.35262683	1.3575145	-0.06785434	0.382354	0.47132422	0.058387691	0.30354889	0.45712897	0.14652449	0.25907031	0.10483736	0.091060699	0.23510461	0.10052865	0.16935095	0.23975664	0.28695227	0.17162479	0.18105017	0.05232349	0.12030775	0.40075052	0.053301815	0.14013583
4878	48.77	0.41092093	0.66073578	0.11060728	0.40030826	0.94979169	0.14630153	0.28712241	0.94981549	0.19415092	0.19259273	0.97005176	-0.0069141345	0.31915439	0.9589975	-0.20142072	0.42315286	0.94046405	-0.1382722	0.34353735	1.3697594	-0.0024041314	0.27564944	1.417662	0.16626976	0.29390192	1.4245397	-0.15908247	0.37714548	1.2976378	0.0025076587	0.35262021	1.3578003	-0.067522995	0.38310208	0.47142413	0.058635426	0.30405807	0.45719678	0.14660368	0.25911252	0.10488668	0.091071014	0.23517439	0.1006018	0.16937076	0.24010541	0.28711417	0.17162099	0.18110281	0.052707214	0.12051372	0.40077786	0.053300861	0.14016173
4879	48.78	0.41182422	0.6606311	0.11145804	0.40112164	0.95004108	0.14635522	0.28777588	0.94967212	0.19540683	0.19367166	0.96939337	-0.0072065964	0.32064621	0.95899542	-0.20153056	0.42461133	0.94078949	-0.138317	0.34341391	1.3698168	-0.0021258929	0.27551721	1.4177717	0.16629996	0.2945733	1.4245533	-0.15879672	0.37712445	1.2979766	0.0028386161	0.35266183	1.3580732	-0.06718251	0.38385449	0.47151328	0.058954491	0.30454007	0.45725024	0.14669763	0.25916351	0.10492149	0.091104134	0.23525262	0.10064922	0.16941029	0.24041565	0.28724734	0.17162224	0.18115277	0.053044556	0.12069622	0.40080054	0.053298794	0.14018983
4880	48.79	0.41266684	0.66052368	0.11226357	0.40183258	0.95022601	0.1464351	0.28832022	0.94957483	0.19635393	0.19472874	0.96878418	-0.0075912814	0.32215723	0.95896814	-0.20172595	0.42600336	0.94100012	-0.13833128	0.34331171	1.3698529	-0.0018482238	0.2754025	1.4177844	0.16637061	0.29523962	1.4244906	-0.15854173	0.37712845	1.2982996	0.0031813476	0.35275476	1.3583116	-0.066840683	0.38463135	0.47156131	0.059315964	0.30501791	0.45728088	0.14678984	0.25922711	0.10493999	0.091143616	0.23533784	0.10067708	0.1694525	0.24068878	0.28734821	0.17160823	0.18119911	0.053310951	0.12083311	0.4008223	0.053295868	0.14021898
4881	48.8	0.41345401	0.66042212	0.11294382	0.40244394	0.95034436	0.14654698	0.28876813	0.94950592	0.19688493	0.19576401	0.96824268	-0.0080647564	0.3236763	0.95891199	-0.20198491	0.42732941	0.94110077	-0.13829317	0.3432352	1.3698489	-0.0015890557	0.27527972	1.4176832	0.16648036	0.29585693	1.4243503	-0.15833258	0.37716483	1.2985822	0.0035263188	0.35289795	1.3584971	-0.06650602	0.38542892	0.47154987	0.059678158	0.30549979	0.45728455	0.14685904	0.25929227	0.10494345	0.091171341	0.23542583	0.10069191	0.16948277	0.24093048	0.28741711	0.17156528	0.1812404	0.053542202	0.1209529	0.40084531	0.053293278	0.14024776
4882	48.81	0.41418359	0.66032983	0.11344305	0.40296237	0.95040002	0.1466922	0.28912885	0.94944659	0.19694971	0.19676802	0.96778363	-0.0086137352	0.32518448	0.95882666	-0.20227327	0.42858783	0.94110596	-0.13819028	0.34319138	1.369783	-0.001370229	0.27512808	1.4174639	0.1666244	0.29639108	1.4241422	-0.15817737	0.37723886	1.2988022	0.0038648605	0.35308588	1.3586149	-0.066187592	0.38623166	0.47146909	0.060002884	0.30598126	0.45726187	0.14688432	0.25934854	0.1049333	0.091175301	0.23551357	0.10069849	0.16949225	0.24114876	0.28745718	0.17148827	0.18127509	0.053780735	0.12108988	0.40087024	0.053292416	0.14027502
4883	48.82	0.41484802	0.66024506	0.11373452	0.40339688	0.95040094	0.14686812	0.28941022	0.94938556	0.19652536	0.19772385	0.96741437	-0.0092145777	0.32665839	0.95871436	-0.20255232	0.42977408	0.94103723	-0.13801956	0.34318878	1.3696327	-0.0012148304	0.27493222	1.4171334	0.1667952	0.29682068	1.4238828	-0.15807584	0.37735318	1.2989402	0.0041901217	0.3533092	1.358655	-0.065894569	0.38702167	0.471314	0.060268726	0.30644904	0.45721823	0.14685083	0.25939496	0.10491046	0.091153069	0.23560048	0.10069989	0.16947867	0.24135033	0.28747324	0.17137999	0.18130197	0.054001114	0.12122234	0.40089639	0.053294308	0.1402998
4884	48.83	0.41543552	0.66016376	0.11382189	0.40375787	0.95035675	0.14706897	0.28962039	0.94932263	0.19560675	0.19861055	0.96713385	-0.0098350801	0.32807336	0.95857947	-0.2027883	0.43088144	0.94091846	-0.13778606	0.3432348	1.369379	-0.0011431738	0.27468292	1.4167094	0.16698314	0.29713867	1.4235929	-0.15801996	0.37750659	1.2989805	0.0044972496	0.3535563	1.3586124	-0.065634171	0.38778287	0.47108325	0.060476547	0.30688437	0.45716174	0.14675436	0.25943353	0.10487677	0.091108719	0.23568436	0.10069854	0.16944446	0.24153751	0.28747052	0.17124947	0.18132065	0.054099346	0.121264	0.40092233	0.053299301	0.14032161
4885	48.84	0.41593231	0.66008179	0.11373618	0.40405582	0.95027747	0.14728674	0.28976663	0.94926831	0.1942189	0.19940845	0.96693414	-0.01044122	0.32940594	0.95842792	-0.20295862	0.43190323	0.94077216	-0.13750195	0.34333301	1.3690121	-0.0011669334	0.27437796	1.4162164	0.16717679	0.29735254	1.4232948	-0.15799605	0.37769379	1.2989156	0.004782887	0.35381573	1.3584883	-0.065408943	0.3884996	0.47078131	0.060645931	0.30726614	0.45710062	0.14660359	0.25946277	0.10483549	0.091049179	0.23575967	0.10069585	0.16939507	0.24170757	0.28745416	0.17110988	0.18133121	0.053969261	0.12112785	0.40094568	0.053306885	0.14034007
4886	48.85	0.41632526	0.65999573	0.11352862	0.40429977	0.95017236	0.14751205	0.28985297	0.94923834	0.1924496	0.20010454	0.96680414	-0.011005665	0.33063644	0.95826648	-0.2030535	0.43283481	0.94061584	-0.13718497	0.34347943	1.368541	-0.0012803487	0.27402267	1.4156852	0.16736356	0.29748218	1.4230085	-0.15798885	0.37790598	1.2987473	0.0050447659	0.35407867	1.3582909	-0.065215904	0.38915085	0.47042297	0.060802116	0.30757361	0.45704099	0.14641859	0.25947961	0.10479016	0.090983162	0.23582146	0.10069151	0.16933855	0.24185349	0.28742804	0.17097624	0.18133344	0.053605881	0.12081194	0.40096371	0.053315781	0.1403546
